<?xml version="1.0" encoding="UTF-8"?> <svg xmlns="http://www.w3.org/2000/svg" width="690pt" height="439pt" viewBox="0 0 690 439" version="1.1"><g id="#366b9dff"><path fill="#366b9d" opacity="1.00" d=" M 335.46 8.46 C 361.03 0.50 388.73 -2.61 415.05 3.52 C 438.48 7.58 461.00 18.24 477.99 35.02 C 489.53 46.57 495.94 62.57 497.14 78.72 C 486.31 72.06 476.79 62.81 464.37 59.07 C 459.44 57.46 453.76 58.20 449.63 61.41 C 443.87 65.57 440.09 72.00 438.59 78.89 C 433.54 97.73 436.49 118.60 446.85 135.16 C 459.06 155.33 479.35 169.33 500.95 177.91 C 513.49 183.41 526.93 186.22 540.08 189.83 C 549.57 192.46 559.43 193.25 569.20 194.16 C 579.49 195.01 589.67 196.87 599.97 197.65 C 629.56 200.30 659.32 199.50 689.00 199.15 C 689.04 228.24 688.84 257.32 689.08 286.41 C 460.61 286.43 232.14 286.34 3.67 286.49 C 3.76 244.01 3.74 201.54 3.63 159.06 C 23.41 156.42 42.99 152.43 62.84 150.33 C 72.35 149.26 81.53 146.45 90.87 144.47 C 139.58 134.62 187.20 117.20 228.82 89.75 C 247.35 76.93 264.67 62.44 281.23 47.17 C 297.65 32.25 314.33 16.42 335.46 8.46 Z"></path></g><g id="#fffff"><path fill="#fff" opacity="1.00" d=" M 136.40 319.56 C 144.23 317.31 152.63 319.77 159.30 324.06 C 156.83 331.00 154.46 337.97 151.99 344.91 C 150.88 345.25 149.78 345.59 148.68 345.93 C 144.81 343.64 139.99 341.49 135.56 343.57 C 130.47 345.81 129.25 351.95 128.47 356.90 C 126.82 372.94 127.75 389.09 127.49 405.18 C 126.76 405.87 126.03 406.56 125.31 407.26 C 118.02 407.28 110.72 407.16 103.43 407.33 C 102.63 406.31 101.13 405.53 101.27 404.06 C 101.20 377.68 101.28 351.30 101.23 324.93 C 100.88 323.18 102.15 321.94 103.18 320.73 C 110.08 320.77 116.97 320.74 123.87 320.74 C 124.58 321.45 125.29 322.16 126.00 322.88 C 126.00 324.34 126.01 325.81 126.01 327.28 C 128.77 323.92 132.09 320.74 136.40 319.56 Z"></path><path fill="#fff" opacity="1.00" d=" M 291.98 328.25 C 299.63 320.93 310.63 317.22 321.13 319.18 C 328.25 320.11 334.54 324.33 338.79 330.02 C 344.16 324.38 351.17 320.01 359.00 319.01 C 366.89 318.08 375.43 319.29 381.97 324.09 C 387.10 327.82 390.59 333.67 391.62 339.91 C 392.85 346.87 392.44 353.95 392.50 360.97 C 392.49 375.71 392.52 390.46 392.49 405.20 C 391.74 405.88 391.00 406.58 390.26 407.27 C 382.92 407.25 375.58 407.21 368.25 407.29 C 367.58 406.22 366.12 405.44 366.27 404.03 C 366.21 390.70 366.27 377.37 366.25 364.04 C 366.22 357.84 366.56 351.55 365.17 345.46 C 364.50 342.55 361.89 340.29 358.96 339.88 C 353.42 338.95 347.65 342.43 345.57 347.58 C 343.65 352.08 343.55 357.09 343.28 361.90 C 343.21 376.31 343.27 390.71 343.25 405.11 C 342.54 405.82 341.83 406.54 341.12 407.25 C 333.78 407.25 326.45 407.25 319.12 407.25 C 318.41 406.54 317.70 405.83 317.00 405.12 C 317.01 389.41 316.99 373.71 317.01 358.00 C 316.96 354.15 316.88 350.27 316.25 346.46 C 315.81 343.82 314.21 341.10 311.52 340.28 C 305.13 338.20 297.51 342.04 295.51 348.48 C 293.75 354.12 293.77 360.12 293.74 365.97 C 293.74 378.67 293.79 391.38 293.73 404.08 C 293.85 405.47 292.40 406.23 291.76 407.29 C 284.40 407.20 277.04 407.26 269.69 407.26 C 268.96 406.56 268.23 405.87 267.51 405.18 C 267.46 377.69 267.55 350.20 267.47 322.71 C 268.56 322.00 269.42 320.56 270.90 320.77 C 277.22 320.68 283.54 320.80 289.87 320.74 C 290.58 321.45 291.29 322.16 292.01 322.88 C 292.00 324.67 291.99 326.46 291.98 328.25 Z"></path><path fill="#fff" opacity="1.00" d=" M 418.95 330.97 C 433.54 314.50 462.43 314.62 477.28 330.65 C 487.59 341.82 489.14 357.99 488.73 372.51 C 470.67 372.51 452.61 372.46 434.55 372.54 C 435.14 376.12 435.96 379.82 438.28 382.73 C 442.18 388.05 450.11 390.30 455.97 386.95 C 459.72 384.75 460.94 380.26 462.20 376.41 C 470.03 377.77 477.85 379.21 485.70 380.45 C 486.31 381.81 487.90 383.14 486.94 384.73 C 483.79 393.61 477.27 401.50 468.62 405.45 C 459.99 409.47 450.11 409.92 440.81 408.64 C 431.03 407.28 421.64 402.20 415.98 393.99 C 408.24 383.03 406.71 368.91 408.25 355.89 C 409.26 346.78 412.71 337.79 418.95 330.97 M 441.76 341.81 C 437.29 344.51 435.37 349.77 434.86 354.74 C 444.15 354.71 453.45 354.85 462.74 354.66 C 462.08 351.03 461.27 347.20 458.73 344.37 C 454.79 339.36 447.01 338.28 441.76 341.81 Z"></path><path fill="#fff" opacity="1.00" d=" M 530.21 328.53 C 537.55 320.93 548.64 317.32 559.06 319.14 C 569.41 320.59 578.40 327.55 583.65 336.42 C 589.56 346.49 590.62 358.61 589.75 370.04 C 588.98 380.77 585.30 391.75 577.35 399.31 C 569.13 407.90 556.12 411.35 544.70 408.10 C 539.79 406.82 535.55 403.86 531.75 400.60 C 531.75 412.60 531.75 424.60 531.76 436.61 C 531.24 437.14 530.20 438.20 529.69 438.74 C 522.35 438.78 515.01 438.72 507.68 438.77 C 506.94 438.05 506.21 437.33 505.49 436.61 C 505.52 398.68 505.48 360.75 505.51 322.82 C 506.24 322.12 506.98 321.42 507.73 320.73 C 514.52 320.77 521.32 320.74 528.11 320.75 C 528.82 321.46 529.54 322.17 530.26 322.89 C 530.25 324.77 530.23 326.65 530.21 328.53 M 542.33 341.43 C 535.27 344.16 531.97 351.95 531.63 359.06 C 531.19 367.35 531.73 376.86 537.81 383.19 C 542.55 388.23 551.15 389.05 556.49 384.49 C 562.21 379.84 563.00 371.86 563.27 365.00 C 563.26 357.72 562.61 349.31 556.81 344.15 C 553.06 340.47 547.16 339.57 542.33 341.43 Z"></path><path fill="#fff" opacity="1.00" d=" M 617.75 323.79 C 627.17 318.43 638.49 318.37 649.02 319.00 C 657.54 319.48 666.53 321.94 672.39 328.54 C 676.52 332.93 677.34 339.23 677.77 344.99 C 678.58 358.61 677.22 372.26 677.94 385.89 C 678.02 392.22 679.71 398.43 682.60 404.05 C 681.91 405.12 681.23 406.20 680.56 407.28 C 672.75 407.22 664.94 407.24 657.14 407.27 C 656.32 405.00 655.52 402.72 654.76 400.44 C 649.10 405.02 642.29 408.35 634.97 409.04 C 625.49 410.10 614.92 407.97 608.26 400.67 C 597.65 389.71 599.54 368.95 613.01 361.11 C 625.11 354.33 639.52 354.54 652.40 349.93 C 652.14 346.58 651.83 342.16 648.05 340.90 C 643.45 339.48 638.26 339.14 633.68 340.82 C 629.68 342.41 628.38 346.93 626.94 350.57 C 619.79 349.29 612.66 347.99 605.51 346.74 C 604.91 345.80 604.31 344.86 603.72 343.94 C 605.98 335.94 610.33 328.03 617.75 323.79 M 636.56 372.39 C 633.51 373.26 629.99 374.31 628.48 377.39 C 626.18 381.94 629.51 387.56 634.10 388.99 C 639.27 390.60 644.91 388.21 648.70 384.64 C 652.92 380.45 652.04 374.03 652.28 368.62 C 647.07 370.01 641.77 370.99 636.56 372.39 Z"></path><path fill="#fff" opacity="1.00" d=" M 0.74 322.89 C 1.46 322.17 2.17 321.46 2.88 320.75 C 10.21 320.75 17.54 320.75 24.87 320.74 C 25.58 321.45 26.30 322.17 27.01 322.89 C 27.08 338.95 26.82 355.02 27.15 371.08 C 27.56 376.09 26.79 382.23 31.04 385.89 C 36.48 390.16 44.93 388.32 49.31 383.35 C 53.61 379.04 52.86 372.49 53.36 366.94 C 53.70 352.23 53.38 337.51 53.52 322.80 C 54.24 322.11 54.96 321.43 55.68 320.74 C 63.04 320.73 70.40 320.80 77.76 320.71 C 78.41 321.75 79.86 322.54 79.73 323.93 C 79.79 350.30 79.72 376.67 79.77 403.04 C 80.20 405.16 78.40 407.47 76.19 407.25 C 69.84 407.30 63.48 407.21 57.13 407.26 C 56.42 406.54 55.71 405.83 55.00 405.12 C 55.00 403.15 54.99 401.18 54.98 399.22 C 48.47 405.24 39.91 409.15 30.98 409.27 C 22.05 409.53 12.50 406.34 6.84 399.15 C 2.14 393.21 1.08 385.36 0.77 378.03 C 0.72 359.65 0.77 341.27 0.74 322.89 Z"></path><path fill="#fff" opacity="1.00" d=" M 167.75 322.88 C 168.46 322.17 169.17 321.45 169.89 320.74 C 177.22 320.75 184.54 320.75 191.87 320.74 C 192.58 321.45 193.29 322.17 194.01 322.88 C 194.08 338.94 193.82 355.01 194.15 371.07 C 194.56 376.11 193.78 382.30 198.11 385.94 C 203.59 390.16 212.02 388.28 216.37 383.27 C 220.59 378.99 219.86 372.52 220.35 367.02 C 220.70 352.29 220.39 337.55 220.51 322.82 C 221.24 322.12 221.97 321.43 222.70 320.74 C 230.05 320.74 237.41 320.79 244.77 320.71 C 245.44 321.76 246.88 322.58 246.73 324.01 C 246.79 350.35 246.72 376.69 246.77 403.03 C 247.14 404.80 245.85 406.04 244.83 407.27 C 237.93 407.23 231.03 407.25 224.14 407.26 C 223.43 406.55 222.71 405.84 222.00 405.13 C 222.00 403.16 221.98 401.19 221.98 399.22 C 215.23 405.48 206.24 409.42 196.97 409.28 C 187.91 409.30 178.26 405.69 173.00 398.00 C 168.79 391.87 167.97 384.18 167.75 376.94 C 167.74 358.92 167.76 340.90 167.75 322.88 Z"></path></g></svg> 